<?xml version="1.0" encoding="UTF-8" standalone="no"?>
<!DOCTYPE svg PUBLIC "-//W3C//DTD SVG 1.1//EN"
 "http://www.w3.org/Graphics/SVG/1.1/DTD/svg11.dtd">
<!-- Generated by graphviz version 12.2.1 (20241206.2353)
 -->
<!-- Title: G Pages: 1 -->
<svg width="864pt" height="630pt"
 viewBox="0.00 0.00 864.41 630.00" xmlns="http://www.w3.org/2000/svg" xmlns:xlink="http://www.w3.org/1999/xlink">
<g id="graph0" class="graph" transform="scale(1 1) rotate(0) translate(4 626)">
<title>G</title>
<polygon fill="white" stroke="none" points="-4,4 -4,-626 860.41,-626 860.41,4 -4,4"/>
<g id="clust1" class="cluster">
<title>cluster_family_0</title>
</g>
<g id="clust4" class="cluster">
<title>cluster_family_1</title>
</g>
<g id="clust7" class="cluster">
<title>cluster_family_2</title>
</g>
<g id="clust10" class="cluster">
<title>cluster_family_3</title>
</g>
<g id="clust13" class="cluster">
<title>cluster_family_4</title>
</g>
<!-- union_0 -->
<g id="node1" class="node">
<title>union_0</title>
<ellipse fill="#1abc9c" stroke="white" cx="217.96" cy="-315" rx="3.96" ry="3.96"/>
</g>
<!-- siblings_0 -->
<g id="node4" class="node">
<title>siblings_0</title>
<polygon fill="#1abc9c" stroke="#cccccc" stroke-width="0" points="250.92,-315 256.32,-311.4 256.32,-318.6 250.92,-315"/>
</g>
<!-- union_0&#45;&gt;siblings_0 -->
<g id="edge3" class="edge">
<title>union_0&#45;&gt;siblings_0</title>
<path fill="none" stroke="#1abc9c" d="M222.15,-315C229.51,-315 244.57,-315 251.23,-315"/>
</g>
<!-- saxena_gopal_krishna -->
<g id="node2" class="node">
<title>saxena_gopal_krishna</title>
<polygon fill="#fcfeff" stroke="#cccccc" points="185,-306 8,-306 8,-254 185,-254 185,-306"/>
<image xlink:href="/home/ajaysriv/gdrive/work/genealogy/data/media/people/2_profile/saxena_gopal_krishna.jpg.png" width="50px" height="50px" preserveAspectRatio="xMinYMin meet" x="9" y="-305"/>
<text text-anchor="start" x="77" y="-290.07" font-family="Helvetica, Arial, sans-serif" font-size="14.00"> Gopal Krishna</text>
<text text-anchor="start" x="101.38" y="-272.73" font-family="Helvetica, Arial, sans-serif" font-size="12.00" fill="#666666">Saxena</text>
<text text-anchor="start" x="60" y="-257.62" font-family="Helvetica, Arial, sans-serif" font-size="10.00" fill="#aa7777"> * 1934&#45;02&#45;22 </text>
<text text-anchor="start" x="121.75" y="-257.62" font-family="Helvetica, Arial, sans-serif" font-size="10.00" fill="#aa7777"> † 2026&#45;04&#45;04 </text>
</g>
<!-- saxena_gopal_krishna&#45;&gt;union_0 -->
<g id="edge1" class="edge">
<title>saxena_gopal_krishna&#45;&gt;union_0</title>
<path fill="none" stroke="#1abc9c" d="M185.19,-297C203.67,-297 217.66,-297 217.66,-297 217.66,-297 217.66,-305.51 217.66,-310.83"/>
</g>
<!-- saxena_mamta -->
<g id="node3" class="node">
<title>saxena_mamta</title>
<polygon fill="#fffcfe" stroke="#cccccc" points="185,-376 8,-376 8,-324 185,-324 185,-376"/>
<image xlink:href="/home/ajaysriv/gdrive/work/genealogy/data/media/people/2_profile/saxena_mamta.jpg.png" width="50px" height="50px" preserveAspectRatio="xMinYMin meet" x="9" y="-375"/>
<text text-anchor="start" x="98.75" y="-360.07" font-family="Helvetica, Arial, sans-serif" font-size="14.00"> Mamta</text>
<text text-anchor="start" x="101.38" y="-342.73" font-family="Helvetica, Arial, sans-serif" font-size="12.00" fill="#666666">Saxena</text>
<text text-anchor="start" x="60" y="-327.62" font-family="Helvetica, Arial, sans-serif" font-size="10.00" fill="#aa7777"> * 1944&#45;09&#45;06 </text>
<text text-anchor="start" x="121.75" y="-327.62" font-family="Helvetica, Arial, sans-serif" font-size="10.00" fill="#aa7777"> † 2022&#45;07&#45;31 </text>
</g>
<!-- saxena_mamta&#45;&gt;union_0 -->
<g id="edge2" class="edge">
<title>saxena_mamta&#45;&gt;union_0</title>
<path fill="none" stroke="#1abc9c" d="M185.19,-332C203.67,-332 217.66,-332 217.66,-332 217.66,-332 217.66,-324.33 217.66,-319.29"/>
</g>
<!-- srivastava_rakhi -->
<g id="node5" class="node">
<title>srivastava_rakhi</title>
<polygon fill="#fffcfe" stroke="#cccccc" points="478.12,-410 293.87,-410 293.87,-358 478.12,-358 478.12,-410"/>
<image xlink:href="/home/ajaysriv/gdrive/work/genealogy/data/media/people/2_profile/srivastava_rakhi.jpg.png" width="50px" height="50px" preserveAspectRatio="xMinYMin meet" x="294.87" y="-409"/>
<text text-anchor="start" x="392.37" y="-394.07" font-family="Helvetica, Arial, sans-serif" font-size="14.00"> Rakhi</text>
<text text-anchor="start" x="345.87" y="-376.73" font-family="Helvetica, Arial, sans-serif" font-size="12.00" fill="#666666">Srivastava (née Saxena)</text>
<text text-anchor="start" x="345.87" y="-361.62" font-family="Helvetica, Arial, sans-serif" font-size="10.00" fill="#aa7777"> * 1970&#45;03&#45;10 </text>
<text text-anchor="start" x="412.37" y="-361.62" font-family="Helvetica, Arial, sans-serif" font-size="10.00" fill="#aa7777"> &#160;</text>
</g>
<!-- siblings_0&#45;&gt;srivastava_rakhi -->
<g id="edge4" class="edge">
<title>siblings_0:se&#45;&gt;srivastava_rakhi</title>
<path fill="none" stroke="#1abc9c" d="M254.66,-313.23C254.66,-313.23 254.66,-367 254.66,-367 254.66,-367 283.71,-367 283.71,-367"/>
<polygon fill="#1abc9c" stroke="#1abc9c" points="291.71,-357 291.71,-377 287.71,-377 287.71,-357 291.71,-357"/>
<polyline fill="none" stroke="#1abc9c" points="293.71,-367 283.71,-367"/>
</g>
<!-- saxena_anurag -->
<g id="node6" class="node">
<title>saxena_anurag</title>
<polygon fill="#fcfeff" stroke="#cccccc" points="473.37,-340 298.62,-340 298.62,-288 473.37,-288 473.37,-340"/>
<image xlink:href="/home/ajaysriv/gdrive/work/genealogy/data/media/people/2_profile/saxena_anurag.jpg.png" width="50px" height="50px" preserveAspectRatio="xMinYMin meet" x="299.62" y="-339"/>
<text text-anchor="start" x="387.87" y="-324.07" font-family="Helvetica, Arial, sans-serif" font-size="14.00"> Anurag</text>
<text text-anchor="start" x="390.87" y="-306.73" font-family="Helvetica, Arial, sans-serif" font-size="12.00" fill="#666666">Saxena</text>
<text text-anchor="start" x="350.62" y="-291.62" font-family="Helvetica, Arial, sans-serif" font-size="10.00" fill="#aa7777"> * 1971&#45;08&#45;29 </text>
<text text-anchor="start" x="412.37" y="-291.62" font-family="Helvetica, Arial, sans-serif" font-size="10.00" fill="#aa7777"> &#160;</text>
</g>
<!-- siblings_0&#45;&gt;saxena_anurag -->
<g id="edge5" class="edge">
<title>siblings_0:se&#45;&gt;saxena_anurag</title>
<path fill="none" stroke="#1abc9c" d="M256.29,-315C256.29,-315 288.4,-315 288.4,-315"/>
<polygon fill="#1abc9c" stroke="#1abc9c" points="296.4,-305 296.4,-325 292.4,-325 292.4,-305 296.4,-305"/>
<polyline fill="none" stroke="#1abc9c" points="298.4,-315 288.4,-315"/>
</g>
<!-- saxena_sudhir -->
<g id="node7" class="node">
<title>saxena_sudhir</title>
<polygon fill="#fcfeff" stroke="#cccccc" points="473.37,-270 298.62,-270 298.62,-218 473.37,-218 473.37,-270"/>
<image xlink:href="/home/ajaysriv/gdrive/work/genealogy/data/media/people/2_profile/saxena_sudhir.jpg.png" width="50px" height="50px" preserveAspectRatio="xMinYMin meet" x="299.62" y="-269"/>
<text text-anchor="start" x="390.12" y="-254.07" font-family="Helvetica, Arial, sans-serif" font-size="14.00"> Sudhir</text>
<text text-anchor="start" x="390.87" y="-236.72" font-family="Helvetica, Arial, sans-serif" font-size="12.00" fill="#666666">Saxena</text>
<text text-anchor="start" x="350.62" y="-221.62" font-family="Helvetica, Arial, sans-serif" font-size="10.00" fill="#aa7777"> * 1974&#45;01&#45;13 </text>
<text text-anchor="start" x="412.37" y="-221.62" font-family="Helvetica, Arial, sans-serif" font-size="10.00" fill="#aa7777"> &#160;</text>
</g>
<!-- siblings_0&#45;&gt;saxena_sudhir -->
<g id="edge6" class="edge">
<title>siblings_0:se&#45;&gt;saxena_sudhir</title>
<path fill="none" stroke="#1abc9c" d="M254.66,-313.23C254.66,-313.23 254.66,-262 254.66,-262 254.66,-262 288.39,-262 288.39,-262"/>
<polygon fill="#1abc9c" stroke="#1abc9c" points="296.39,-252 296.39,-272 292.39,-272 292.39,-252 296.39,-252"/>
<polyline fill="none" stroke="#1abc9c" points="298.39,-262 288.39,-262"/>
</g>
<!-- union_1 -->
<g id="node8" class="node">
<title>union_1</title>
<ellipse fill="#2ecc71" stroke="white" cx="517.83" cy="-451" rx="3.96" ry="3.96"/>
<text text-anchor="middle" x="550.67" y="-438.49" font-family="Helvetica, Arial, sans-serif" font-size="9.00" fill="#660000">⚭ 1991&#45;11&#45;09</text>
</g>
<!-- srivastava_rakhi&#45;&gt;union_1 -->
<g id="edge7" class="edge">
<title>srivastava_rakhi&#45;&gt;union_1</title>
<path fill="none" stroke="#2ecc71" d="M478.5,-384C500.96,-384 518.66,-384 518.66,-384 518.66,-384 518.66,-432.59 518.66,-447.01"/>
</g>
<!-- union_2 -->
<g id="node13" class="node">
<title>union_2</title>
<ellipse fill="#3498db" stroke="white" cx="517.83" cy="-175" rx="3.96" ry="3.96"/>
</g>
<!-- saxena_anurag&#45;&gt;union_2 -->
<g id="edge12" class="edge">
<title>saxena_anurag&#45;&gt;union_2</title>
<path fill="none" stroke="#3498db" d="M473.51,-314C497.32,-314 516.66,-314 516.66,-314 516.66,-314 516.66,-201.8 516.66,-179.01"/>
</g>
<!-- union_3 -->
<g id="node17" class="node">
<title>union_3</title>
<ellipse fill="#9b59b6" stroke="white" cx="517.83" cy="-104" rx="3.96" ry="3.96"/>
</g>
<!-- saxena_sudhir&#45;&gt;union_3 -->
<g id="edge16" class="edge">
<title>saxena_sudhir&#45;&gt;union_3</title>
<path fill="none" stroke="#9b59b6" d="M473.87,-244C488.84,-244 499.66,-244 499.66,-244 499.66,-244 499.66,-105.32 499.66,-105.32 499.66,-105.32 508.25,-105.32 513.62,-105.32"/>
</g>
<!-- siblings_1 -->
<g id="node10" class="node">
<title>siblings_1</title>
<polygon fill="#2ecc71" stroke="#cccccc" stroke-width="0" points="550.79,-451 556.19,-447.4 556.19,-454.6 550.79,-451"/>
</g>
<!-- union_1&#45;&gt;siblings_1 -->
<g id="edge9" class="edge">
<title>union_1&#45;&gt;siblings_1</title>
<path fill="none" stroke="#2ecc71" d="M522.02,-451C529.38,-451 544.44,-451 551.1,-451"/>
</g>
<!-- srivastava_ashu -->
<g id="node9" class="node">
<title>srivastava_ashu</title>
<polygon fill="#fcfeff" stroke="#cccccc" points="473.37,-480 298.62,-480 298.62,-428 473.37,-428 473.37,-480"/>
<image xlink:href="/home/ajaysriv/gdrive/work/genealogy/data/media/people/2_profile/srivastava_ashu.jpg.png" width="50px" height="50px" preserveAspectRatio="xMinYMin meet" x="299.62" y="-479"/>
<text text-anchor="start" x="394.25" y="-464.07" font-family="Helvetica, Arial, sans-serif" font-size="14.00"> Ashu</text>
<text text-anchor="start" x="383.37" y="-446.73" font-family="Helvetica, Arial, sans-serif" font-size="12.00" fill="#666666">Srivastava</text>
<text text-anchor="start" x="350.62" y="-431.62" font-family="Helvetica, Arial, sans-serif" font-size="10.00" fill="#aa7777"> * 1962&#45;06&#45;27 </text>
<text text-anchor="start" x="412.37" y="-431.62" font-family="Helvetica, Arial, sans-serif" font-size="10.00" fill="#aa7777"> &#160;</text>
</g>
<!-- srivastava_ashu&#45;&gt;union_1 -->
<g id="edge8" class="edge">
<title>srivastava_ashu&#45;&gt;union_1</title>
<path fill="none" stroke="#2ecc71" d="M473.56,-451C491.07,-451 506.28,-451 513.45,-451"/>
</g>
<!-- srivastava_ajay -->
<g id="node11" class="node">
<title>srivastava_ajay</title>
<polygon fill="#fcfeff" stroke="#cccccc" points="761.74,-474 586.99,-474 586.99,-422 761.74,-422 761.74,-474"/>
<image xlink:href="/home/ajaysriv/gdrive/work/genealogy/data/media/people/2_profile/srivastava_ajay.jpg.png" width="50px" height="50px" preserveAspectRatio="xMinYMin meet" x="587.99" y="-473"/>
<text text-anchor="start" x="684.87" y="-458.07" font-family="Helvetica, Arial, sans-serif" font-size="14.00"> Ajay</text>
<text text-anchor="start" x="671.74" y="-440.73" font-family="Helvetica, Arial, sans-serif" font-size="12.00" fill="#666666">Srivastava</text>
<text text-anchor="start" x="638.99" y="-425.62" font-family="Helvetica, Arial, sans-serif" font-size="10.00" fill="#aa7777"> * 1995&#45;08&#45;19 </text>
<text text-anchor="start" x="700.74" y="-425.62" font-family="Helvetica, Arial, sans-serif" font-size="10.00" fill="#aa7777"> &#160;</text>
</g>
<!-- siblings_1&#45;&gt;srivastava_ajay -->
<g id="edge10" class="edge">
<title>siblings_1:se&#45;&gt;srivastava_ajay</title>
<path fill="none" stroke="#2ecc71" d="M556.16,-451C556.16,-451 576.6,-451 576.6,-451"/>
<polygon fill="#2ecc71" stroke="#2ecc71" points="584.6,-441 584.6,-461 580.6,-461 580.6,-441 584.6,-441"/>
<polyline fill="none" stroke="#2ecc71" points="586.6,-451 576.6,-451"/>
</g>
<!-- srivastava_atul -->
<g id="node12" class="node">
<title>srivastava_atul</title>
<polygon fill="#fcfeff" stroke="#cccccc" points="761.74,-544 586.99,-544 586.99,-492 761.74,-492 761.74,-544"/>
<image xlink:href="/home/ajaysriv/gdrive/work/genealogy/data/media/people/2_profile/srivastava_atul.jpg.png" width="50px" height="49.8px" preserveAspectRatio="xMinYMin meet" x="587.99" y="-542.9"/>
<text text-anchor="start" x="686.37" y="-528.08" font-family="Helvetica, Arial, sans-serif" font-size="14.00"> Atul</text>
<text text-anchor="start" x="671.74" y="-510.73" font-family="Helvetica, Arial, sans-serif" font-size="12.00" fill="#666666">Srivastava</text>
<text text-anchor="start" x="638.99" y="-495.62" font-family="Helvetica, Arial, sans-serif" font-size="10.00" fill="#aa7777"> * 1998&#45;02&#45;06 </text>
<text text-anchor="start" x="700.74" y="-495.62" font-family="Helvetica, Arial, sans-serif" font-size="10.00" fill="#aa7777"> &#160;</text>
</g>
<!-- siblings_1&#45;&gt;srivastava_atul -->
<g id="edge11" class="edge">
<title>siblings_1:se&#45;&gt;srivastava_atul</title>
<path fill="none" stroke="#2ecc71" d="M554.66,-449.23C554.66,-449.23 554.66,-518 554.66,-518 554.66,-518 576.74,-518 576.74,-518"/>
<polygon fill="#2ecc71" stroke="#2ecc71" points="584.74,-508 584.74,-528 580.74,-528 580.74,-508 584.74,-508"/>
<polyline fill="none" stroke="#2ecc71" points="586.74,-518 576.74,-518"/>
</g>
<!-- union_4 -->
<g id="node22" class="node">
<title>union_4</title>
<ellipse fill="#34495e" stroke="white" cx="794.7" cy="-577" rx="3.96" ry="3.96"/>
<text text-anchor="middle" x="827.54" y="-564.49" font-family="Helvetica, Arial, sans-serif" font-size="9.00" fill="#660000">⚭ 2025&#45;11&#45;15</text>
</g>
<!-- srivastava_ajay&#45;&gt;union_4 -->
<g id="edge21" class="edge">
<title>srivastava_ajay&#45;&gt;union_4</title>
<path fill="none" stroke="#34495e" d="M762.11,-448C780.61,-448 794.66,-448 794.66,-448 794.66,-448 794.66,-550.32 794.66,-572.71"/>
</g>
<!-- siblings_2 -->
<g id="node15" class="node">
<title>siblings_2</title>
<polygon fill="#3498db" stroke="#cccccc" stroke-width="0" points="550.79,-175 556.19,-171.4 556.19,-178.6 550.79,-175"/>
</g>
<!-- union_2&#45;&gt;siblings_2 -->
<g id="edge14" class="edge">
<title>union_2&#45;&gt;siblings_2</title>
<path fill="none" stroke="#3498db" d="M522.02,-175C529.38,-175 544.44,-175 551.1,-175"/>
</g>
<!-- vaswani_jyotsna -->
<g id="node14" class="node">
<title>vaswani_jyotsna</title>
<polygon fill="#fffcfe" stroke="#cccccc" points="473.37,-200 298.62,-200 298.62,-148 473.37,-148 473.37,-200"/>
<image xlink:href="/home/ajaysriv/gdrive/work/genealogy/data/media/people/2_profile/vaswani_jyotsna.jpg.png" width="50px" height="50px" preserveAspectRatio="xMinYMin meet" x="299.62" y="-199"/>
<text text-anchor="start" x="386.37" y="-184.07" font-family="Helvetica, Arial, sans-serif" font-size="14.00"> Jyotsna</text>
<text text-anchor="start" x="389" y="-166.72" font-family="Helvetica, Arial, sans-serif" font-size="12.00" fill="#666666">Vaswani</text>
<text text-anchor="start" x="350.62" y="-151.62" font-family="Helvetica, Arial, sans-serif" font-size="10.00" fill="#aa7777"> * 1973&#45;07&#45;27 </text>
<text text-anchor="start" x="412.37" y="-151.62" font-family="Helvetica, Arial, sans-serif" font-size="10.00" fill="#aa7777"> &#160;</text>
</g>
<!-- vaswani_jyotsna&#45;&gt;union_2 -->
<g id="edge13" class="edge">
<title>vaswani_jyotsna&#45;&gt;union_2</title>
<path fill="none" stroke="#3498db" d="M473.56,-175C491.07,-175 506.28,-175 513.45,-175"/>
</g>
<!-- saxena_akanksha -->
<g id="node16" class="node">
<title>saxena_akanksha</title>
<polygon fill="#fffcfe" stroke="#cccccc" points="761.74,-200 586.99,-200 586.99,-148 761.74,-148 761.74,-200"/>
<image xlink:href="/home/ajaysriv/gdrive/work/genealogy/data/media/people/2_profile/saxena_akanksha.jpg.png" width="50px" height="50px" preserveAspectRatio="xMinYMin meet" x="587.99" y="-199"/>
<text text-anchor="start" x="668.37" y="-184.07" font-family="Helvetica, Arial, sans-serif" font-size="14.00"> Akanksha</text>
<text text-anchor="start" x="679.24" y="-166.72" font-family="Helvetica, Arial, sans-serif" font-size="12.00" fill="#666666">Saxena</text>
<text text-anchor="start" x="638.99" y="-151.62" font-family="Helvetica, Arial, sans-serif" font-size="10.00" fill="#aa7777"> * 2001&#45;10&#45;12 </text>
<text text-anchor="start" x="700.74" y="-151.62" font-family="Helvetica, Arial, sans-serif" font-size="10.00" fill="#aa7777"> &#160;</text>
</g>
<!-- siblings_2&#45;&gt;saxena_akanksha -->
<g id="edge15" class="edge">
<title>siblings_2:se&#45;&gt;saxena_akanksha</title>
<path fill="none" stroke="#3498db" d="M556.16,-175C556.16,-175 576.6,-175 576.6,-175"/>
<polygon fill="#3498db" stroke="#3498db" points="584.6,-165 584.6,-185 580.6,-185 580.6,-165 584.6,-165"/>
<polyline fill="none" stroke="#3498db" points="586.6,-175 576.6,-175"/>
</g>
<!-- siblings_3 -->
<g id="node19" class="node">
<title>siblings_3</title>
<polygon fill="#9b59b6" stroke="#cccccc" stroke-width="0" points="550.79,-104 556.19,-100.4 556.19,-107.6 550.79,-104"/>
</g>
<!-- union_3&#45;&gt;siblings_3 -->
<g id="edge18" class="edge">
<title>union_3&#45;&gt;siblings_3</title>
<path fill="none" stroke="#9b59b6" d="M522.02,-104C529.38,-104 544.44,-104 551.1,-104"/>
</g>
<!-- saxena_sonal -->
<g id="node18" class="node">
<title>saxena_sonal</title>
<polygon fill="#fffcfe" stroke="#cccccc" points="484.87,-130 287.12,-130 287.12,-78 484.87,-78 484.87,-130"/>
<image xlink:href="/home/ajaysriv/gdrive/work/genealogy/data/media/people/2_profile/saxena_sonal.jpg.png" width="50px" height="50px" preserveAspectRatio="xMinYMin meet" x="288.12" y="-129"/>
<text text-anchor="start" x="392.37" y="-114.08" font-family="Helvetica, Arial, sans-serif" font-size="14.00"> Sonal</text>
<text text-anchor="start" x="339.12" y="-96.72" font-family="Helvetica, Arial, sans-serif" font-size="12.00" fill="#666666">Saxena (née Kulshreshtha)</text>
<text text-anchor="start" x="339.12" y="-81.62" font-family="Helvetica, Arial, sans-serif" font-size="10.00" fill="#aa7777"> * 1973&#45;05&#45;04 </text>
<text text-anchor="start" x="412.37" y="-81.62" font-family="Helvetica, Arial, sans-serif" font-size="10.00" fill="#aa7777"> &#160;</text>
</g>
<!-- saxena_sonal&#45;&gt;union_3 -->
<g id="edge17" class="edge">
<title>saxena_sonal&#45;&gt;union_3</title>
<path fill="none" stroke="#9b59b6" d="M485.24,-102.68C497.83,-102.68 508.21,-102.68 513.67,-102.68"/>
</g>
<!-- saxena_paarth -->
<g id="node20" class="node">
<title>saxena_paarth</title>
<polygon fill="#fcfeff" stroke="#cccccc" points="761.74,-60 586.99,-60 586.99,-8 761.74,-8 761.74,-60"/>
<image xlink:href="/home/ajaysriv/gdrive/work/genealogy/data/media/people/2_profile/saxena_paarth.jpg.png" width="50px" height="50px" preserveAspectRatio="xMinYMin meet" x="587.99" y="-59"/>
<text text-anchor="start" x="677.74" y="-44.08" font-family="Helvetica, Arial, sans-serif" font-size="14.00"> Paarth</text>
<text text-anchor="start" x="679.24" y="-26.73" font-family="Helvetica, Arial, sans-serif" font-size="12.00" fill="#666666">Saxena</text>
<text text-anchor="start" x="638.99" y="-11.62" font-family="Helvetica, Arial, sans-serif" font-size="10.00" fill="#aa7777"> * 2003&#45;04&#45;19 </text>
<text text-anchor="start" x="700.74" y="-11.62" font-family="Helvetica, Arial, sans-serif" font-size="10.00" fill="#aa7777"> &#160;</text>
</g>
<!-- siblings_3&#45;&gt;saxena_paarth -->
<g id="edge19" class="edge">
<title>siblings_3:se&#45;&gt;saxena_paarth</title>
<path fill="none" stroke="#9b59b6" d="M554.66,-102.23C554.66,-102.23 554.66,-34 554.66,-34 554.66,-34 576.74,-34 576.74,-34"/>
<polygon fill="#9b59b6" stroke="#9b59b6" points="584.74,-24 584.74,-44 580.74,-44 580.74,-24 584.74,-24"/>
<polyline fill="none" stroke="#9b59b6" points="586.74,-34 576.74,-34"/>
</g>
<!-- saxena_gouri -->
<g id="node21" class="node">
<title>saxena_gouri</title>
<polygon fill="#fffcfe" stroke="#cccccc" points="761.74,-130 586.99,-130 586.99,-78 761.74,-78 761.74,-130"/>
<image xlink:href="/home/ajaysriv/gdrive/work/genealogy/data/media/people/2_profile/saxena_gouri.jpg.png" width="50px" height="50px" preserveAspectRatio="xMinYMin meet" x="587.99" y="-129"/>
<text text-anchor="start" x="681.12" y="-114.08" font-family="Helvetica, Arial, sans-serif" font-size="14.00"> Gouri</text>
<text text-anchor="start" x="679.24" y="-96.72" font-family="Helvetica, Arial, sans-serif" font-size="12.00" fill="#666666">Saxena</text>
<text text-anchor="start" x="638.99" y="-81.62" font-family="Helvetica, Arial, sans-serif" font-size="10.00" fill="#aa7777"> * 2006&#45;11&#45;01 </text>
<text text-anchor="start" x="700.74" y="-81.62" font-family="Helvetica, Arial, sans-serif" font-size="10.00" fill="#aa7777"> &#160;</text>
</g>
<!-- siblings_3&#45;&gt;saxena_gouri -->
<g id="edge20" class="edge">
<title>siblings_3:se&#45;&gt;saxena_gouri</title>
<path fill="none" stroke="#9b59b6" d="M556.16,-104C556.16,-104 576.6,-104 576.6,-104"/>
<polygon fill="#9b59b6" stroke="#9b59b6" points="584.6,-94 584.6,-114 580.6,-114 580.6,-94 584.6,-94"/>
<polyline fill="none" stroke="#9b59b6" points="586.6,-104 576.6,-104"/>
</g>
<!-- hangsan_samantha -->
<g id="node23" class="node">
<title>hangsan_samantha</title>
<polygon fill="#fffcfe" stroke="#cccccc" points="761.74,-614 586.99,-614 586.99,-562 761.74,-562 761.74,-614"/>
<image xlink:href="/home/ajaysriv/gdrive/work/genealogy/data/media/people/2_profile/hangsan_samantha.jpg.png" width="50px" height="50px" preserveAspectRatio="xMinYMin meet" x="587.99" y="-613"/>
<text text-anchor="start" x="666.87" y="-598.08" font-family="Helvetica, Arial, sans-serif" font-size="14.00"> Samantha</text>
<text text-anchor="start" x="675.87" y="-580.73" font-family="Helvetica, Arial, sans-serif" font-size="12.00" fill="#666666">Hangsan</text>
<text text-anchor="start" x="638.99" y="-565.62" font-family="Helvetica, Arial, sans-serif" font-size="10.00" fill="#aa7777"> * 1995&#45;11&#45;09 </text>
<text text-anchor="start" x="700.74" y="-565.62" font-family="Helvetica, Arial, sans-serif" font-size="10.00" fill="#aa7777"> &#160;</text>
</g>
<!-- hangsan_samantha&#45;&gt;union_4 -->
<g id="edge22" class="edge">
<title>hangsan_samantha&#45;&gt;union_4</title>
<path fill="none" stroke="#34495e" d="M762.14,-577C774.57,-577 785,-577 790.5,-577"/>
</g>
</g>
</svg>
